<?xml version="1.0" standalone="no"?>
<!DOCTYPE svg PUBLIC "-//W3C//DTD SVG 1.1//EN" "http://www.w3.org/Graphics/SVG/1.1/DTD/svg11.dtd" >
<svg xmlns="http://www.w3.org/2000/svg">
<metadata>
Created by FontForge 20120731 at Tue Dec 27 19:39:16 2016
 By admin
</metadata>
<defs>
<font id="iconfont" horiz-adv-x="1024" >
  <font-face 
    font-family="iconfont"
    font-weight="500"
    font-stretch="normal"
    units-per-em="1024"
    panose-1="2 0 6 3 0 0 0 0 0 0"
    ascent="896"
    descent="-128"
    x-height="792"
    bbox="0 -128 1256 896"
    underline-thickness="0"
    underline-position="0"
    unicode-range="U+0078-E707"
  />
<missing-glyph 
 />
    <glyph glyph-name=".notdef" 
 />
    <glyph glyph-name=".notdef" 
 />
    <glyph glyph-name=".null" horiz-adv-x="0" 
 />
    <glyph glyph-name="nonmarkingreturn" horiz-adv-x="341" 
 />
    <glyph glyph-name="x" unicode="x" horiz-adv-x="1001" 
d="M281 543q-27 -1 -53 -1h-83q-18 0 -36.5 -6t-32.5 -18.5t-23 -32t-9 -45.5v-76h912v41q0 16 -0.5 30t-0.5 18q0 13 -5 29t-17 29.5t-31.5 22.5t-49.5 9h-133v-97h-438v97zM955 310v-52q0 -23 0.5 -52t0.5 -58t-10.5 -47.5t-26 -30t-33 -16t-31.5 -4.5q-14 -1 -29.5 -0.5
t-29.5 0.5h-32l-45 128h-439l-44 -128h-29h-34q-20 0 -45 1q-25 0 -41 9.5t-25.5 23t-13.5 29.5t-4 30v167h911zM163 247q-12 0 -21 -8.5t-9 -21.5t9 -21.5t21 -8.5q13 0 22 8.5t9 21.5t-9 21.5t-22 8.5zM316 123q-8 -26 -14 -48q-5 -19 -10.5 -37t-7.5 -25t-3 -15t1 -14.5
t9.5 -10.5t21.5 -4h37h67h81h80h64h36q23 0 34 12t2 38q-5 13 -9.5 30.5t-9.5 34.5q-5 19 -11 39h-368zM336 498v228q0 11 2.5 23t10 21.5t20.5 15.5t34 6h188q31 0 51.5 -14.5t20.5 -52.5v-227h-327z" />
    <glyph glyph-name="icon_search" unicode="&#xe618;" 
d="M1016 -42l-292 294q58 78 74.5 173t-12.5 188t-99 164q-57 57 -132 87t-151 30t-151 -30t-132 -87q-77 -77 -104.5 -180.5t0 -206.5t104.5 -180q70 -70 163 -99t188 -12.5t173 75.5l292 -295q8 -7 18 -7t17 7l44 44q7 7 7 17.5t-7 17.5zM195 282q-86 86 -86 208t86 208
t208 86t208 -86t86 -208t-86 -208t-208 -86t-208 86z" />
    <glyph glyph-name="icon_setting" unicode="&#xe60b;" horiz-adv-x="1064" 
d="M389 385.5q0 62.5 42.5 105t105 42.5t105.5 -42.5t43 -105.5t-43 -105.5t-105 -42.5q-63 0 -106 42q-42 44 -42 106.5zM179 289q13 -45 38 -90l-98 -120l111 -110l120 97q42 -24 90 -38l16 -153h159l17 153q41 13 90 38l119 -97l112 110l-99 120q26 47 38 90l153 17v159
l-153 16q-10 36 -38 90l99 120l-112 111l-119 -98q-55 28 -90 38l-17 153h-159l-16 -153q-42 -12 -90 -38l-120 98l-111 -111l98 -120q-26 -51 -38 -90l-153 -16v-159z" />
    <glyph glyph-name="icon_camera" unicode="&#xe60f;" 
d="M512 81q-92 0 -156.5 65t-64.5 156.5t64.5 156.5t156.5 65t156.5 -65t64.5 -156.5t-64.5 -156.5t-156.5 -65zM512 454q-63 0 -107 -44.5t-44 -107t44 -107t107 -44.5t107 44.5t44 107t-44 107t-107 44.5zM738 491q0 -17 12.5 -29.5t30.5 -12.5t30.5 12.5t12.5 29.5v0
q0 18 -12.5 30.5t-30.5 12.5t-30.5 -12.5t-12.5 -30.5v0zM962 676h-900v-88v0v-654h900v742v0zM130 1l1 606l763 1v-606l-764 -1v0zM110 834h343v-121h-343v121z" />
    <glyph glyph-name="icon_edit" unicode="&#xe615;" 
d="M250 114l202 86l-124 122zM848 589l-127 131l-370 -365l133 -137zM953 746q-34 37 -73 66q-17 12 -34 12t-26 -6l-8 -6l-66 -66l134 -133q56 57 73 76q8 9 8 23t-4 24zM811 46q0 -7 -5 -12t-12 -5h-622q-7 0 -12 5t-5 12v617q0 7 5 12t12 5h396l82 87h-563q-8 0 -14 -6
t-6 -14v-786q0 -8 6 -14t14 -6h792q8 0 14 6t6 14v562l-88 -82v-395z" />
    <glyph glyph-name="icon_star" unicode="&#xe610;" horiz-adv-x="1027" 
d="M770 252l60 -353l-317 166l-317 -166l61 353l-257 250l355 51l158 322l159 -322l354 -51z" />
    <glyph glyph-name="icon_yes" unicode="&#xe617;" horiz-adv-x="1415" 
d="M1136 806l-605 -605l-321 322l-120 -120l441 -441l725 724z" />
    <glyph glyph-name="icon_password" unicode="&#xe613;" 
d="M887.5 759.5q-74.5 74.5 -179 74.5t-178.5 -74q-55 -55 -70 -130.5t14 -143.5q-3 -2 -5 -4l-387 -386q-8 -8 -14 -22.5t-6 -25.5v-86q0 -11 8.5 -19.5t19.5 -8.5h86q12 0 20 8.5t8 20.5v82q0 11 8.5 19.5t19.5 8.5h82q12 0 20.5 8.5t8.5 19.5v83q0 11 8 19.5t20 8.5h82
q12 0 26 5.5t22 14.5l109 109q2 2 4 5q68 -29 143.5 -14t130.5 70q74 74 74 178.5t-74.5 179zM858 590.5q-29 -28.5 -70 -28.5t-69.5 28.5t-28.5 69.5t28.5 70t69.5 29t70 -29t29 -70t-29 -69.5z" />
    <glyph glyph-name="icon_share" unicode="&#xe609;" 
d="M231 272q53 60 120.5 100t126 54t109.5 18.5t81 2t30 -3.5v-173l292 263l-292 263v-175q-285 2 -407 -186q-52 -82 -60 -163v0zM131 679h313v98h-410v-98h72h-72v-585h97v585zM814 93h-780v-97h878v273h-98v-176zM814 93z" />
    <glyph glyph-name="icon_full_heart" unicode="&#xe621;" 
d="M723 826q-32 0 -65.5 -12t-58.5 -29t-45.5 -34t-30.5 -29l-11 -12q-4 5 -11 13t-30 27.5t-46.5 35t-57.5 28t-66 12.5q-36 0 -72.5 -9.5t-72 -30.5t-63 -51.5t-44.5 -76.5t-17 -101q0 -66 35 -144.5t90 -149.5t120 -137t126.5 -113t108.5 -71q47 24 108.5 71t126.5 113
t120 137t90 149.5t35 144.5q0 55 -17 101t-44.5 76.5t-63 51.5t-72 30.5t-72.5 9.5z" />
    <glyph glyph-name="icon_close" unicode="&#xe601;" 
d="M962 763l-71 71l-385 -385l-373 373l-71 -70l373 -374l-361 -362l70 -70l362 361l374 -373l70 71l-373 373z" />
    <glyph glyph-name="icon_circle_help" unicode="&#xe6c5;" 
d="M512.5 893q-103.5 0 -197.5 -40t-162 -108.5t-108 -162.5t-40 -197.5t40 -197.5t108 -162t162 -108.5t197.5 -40.5t198 40.5t162.5 108.5t108 162t40 197.5t-40 197.5t-108 162.5t-162.5 108.5t-198 40zM551 82h-84v92h84v-92zM673.5 487q-22.5 -42 -61 -72.5
t-53.5 -61.5q-16 -30 -16 -42v-27h-68v39q0 34 17 66.5t59 70.5q31 27 42.5 55.5t11.5 55.5q0 50 -23 75t-65 24.5t-71 -32.5t-29 -105h-88q4 107 57.5 158.5t130.5 51.5q84 0 131.5 -46t47.5 -118q0 -50 -22.5 -92z" />
    <glyph glyph-name="icon_back" unicode="&#xe600;" 
d="M703 -128l-511 513l508 511l68 -68l-440 -443l443 -445z" />
    <glyph glyph-name="icon_unstar" unicode="&#xe611;" horiz-adv-x="1077" 
d="M1077 505l-373 54l-166 337l-167 -337l-371 -54l269 -263l-63 -370l332 174l333 -174l-64 370zM538 129l-235 -125l44 264l-191 186l264 38l118 240l119 -240l263 -38l-191 -186l45 -264zM538 129z" />
    <glyph glyph-name="icon_more" unicode="&#xe60c;" 
d="M390 896h244v-244h-244v244zM390 506h244v-244h-244v244zM390 116h244v-244h-244v244z" />
    <glyph glyph-name="icon_circle_warning" unicode="&#xe64f;" 
d="M512 896q-104 0 -199 -40.5t-163.5 -109t-109 -163.5t-40.5 -199t40.5 -199t109 -163.5t163.5 -109t199 -40.5t199 40.5t163.5 109t109 163.5t40.5 199t-40.5 199t-109 163.5t-163.5 109t-199 40.5zM580 92h-136v116h136v-116zM580 305h-136v371h136v-371z" />
    <glyph glyph-name="icon_delete" unicode="&#xe622;" 
d="M768 -32h-96v672h-96v-672h-128v672h-96v-672h-96v672h512v-672zM416 800h192v-64h-192v64zM880 736h-176v96q0 26 -19 45t-45 19h-256q-26 0 -45 -19t-19 -45v-96h-176q-20 0 -34 -14t-14 -34t14 -34t34 -14h16v-704q0 -26 19 -45t45 -19h576q26 0 45 19t19 45v704h16
q20 0 34 14t14 34t-14 34t-34 14z" />
    <glyph glyph-name="icon_notice" unicode="&#xe612;" horiz-adv-x="1028" 
d="M832 384h192v-64h-192v64zM1028 738l-17 62l-183 -66l17 -62zM828 -30l183 -66l17 62l-183 66zM224 640h-128q-40 0 -68 -28t-28 -68v-320q0 -40 28 -68t68 -28h128q48 0 76 39l404 -231v896l-404 -231q-28 39 -76 39zM224 192h-128q-13 0 -22.5 9.5t-9.5 22.5v320
q0 13 9.5 22.5t22.5 9.5h128q13 0 22.5 -9.5t9.5 -22.5v-320q0 -13 -9.5 -22.5t-22.5 -9.5zM640 46l-320 183v310l320 183v-676z" />
    <glyph glyph-name="icon_message" unicode="&#xe60a;" horiz-adv-x="1446" 
d="M116 -12v792h1117v-792h-1117zM210 82h930v518l-462 -285l-3 4l-2 -3l-463 296v-530zM679 423l427 263h-840z" />
    <glyph glyph-name="icon_photo" unicode="&#xe657;" 
d="M901 816h-781q-31 0 -52.5 -20.5t-21.5 -51.5v-717q0 -31 21.5 -53t52.5 -22h787q30 0 50.5 21.5t20.5 53.5v717q0 31 -23 51.5t-54 20.5v0zM346 710q48 0 81.5 -33.5t33.5 -81t-33.5 -81t-81 -33.5t-81 33.5t-33.5 81t33.5 81t80.5 33.5v0zM151 43q-14 0 -25 9
q-11 10 -12.5 25.5t8.5 26.5l172 259q9 11 23.5 12.5t26.5 -6.5l151 -113l271 308q6 8 14 16t23 18t28.5 12.5t29 -7t26.5 -33.5q0 -114 1 -230v-297h-737v0zM151 43z" />
    <glyph glyph-name="icon_about" unicode="&#xe68d;" 
d="M512 896q-139 0 -257 -68.5t-186.5 -186.5t-68.5 -257t68.5 -257t186.5 -186.5t257 -68.5t257 68.5t186.5 186.5t68.5 257t-68.5 257t-186.5 186.5t-257 68.5zM496.5 64q-18.5 0 -31.5 15.5t-13 37.5l-1 322q0 22 13.5 37.5t31.5 15.5t31 -15.5t13 -37.5l1 -322
q0 -22 -13 -37.5t-31.5 -15.5zM496 589q-20 0 -34 16.5t-14 39.5v2q0 24 14 40.5t34 16.5t34 -16.5t14 -40.5v-2q0 -23 -14 -39.5t-34 -16.5z" />
    <glyph glyph-name="icon_refresh" unicode="&#xe604;" 
d="M512 748q-99 0 -183 -49.5t-132 -132.5h-102q54 122 166.5 197.5t250.5 75.5t250.5 -75.5t166.5 -197.5h-102q-48 83 -132 132.5t-183 49.5zM148 384l-137 182h273zM876 384l137 -182h-273zM512 20q99 0 183 49.5t132 132.5h102q-54 -122 -166.5 -197.5t-250.5 -75.5
t-250.5 75.5t-166.5 197.5h102q48 -83 132 -132.5t183 -49.5z" />
    <glyph glyph-name="icon_copy" unicode="&#xe707;" 
d="M832 -128h-768v896h768v-896zM768 704h-640v-768h640v768zM320 896h-64v-128h64v128zM640 512h-384v-64h384v64zM640 320h-384v-64h384v64zM640 128h-384v-64h384v64zM960 896h-640v-64h640v64zM960 832h-64v-768h64v768zM896 128h-64v-64h64v64z" />
    <glyph glyph-name="icon_menu" unicode="&#xe605;" 
d="M907 664h-787v112h787v-112zM119 329v113h788v-113h-788zM119 -11v113h788v-113h-788z" />
    <glyph glyph-name="icon_my" unicode="&#xe603;" 
d="M687 315q57 44 89.5 109t32.5 140q0 130 -92 222t-222 92t-222 -92t-92 -222q0 -75 32.5 -140t89.5 -109q-62 -20 -110 -54.5t-76 -71.5t-46.5 -82t-26 -79.5t-10 -70.5t-2 -48.5t1.5 -18.5v0h87q0 7 0.5 20t7.5 50t19 71t39.5 75.5t65 71t99.5 50.5t138 21h5h4h6
q64 -1 118.5 -14t92.5 -34t68.5 -48t49.5 -56.5t32.5 -59t19.5 -56t9 -47t3.5 -32.5l0.5 -12h91v0q0 4 0.5 11.5t-1 31t-5 47t-12.5 56.5t-22.5 63t-37 63.5t-53.5 61t-74.5 52t-97.5 39.5zM494.5 340q-92.5 0 -157.5 65.5t-65 158t65 158t157.5 65.5t158 -65.5t65.5 -158
t-65.5 -158t-158 -65.5z" />
    <glyph glyph-name="icon_add" unicode="&#xe602;" horiz-adv-x="1064" 
d="M1053 466h-466v412h-110v-412h-467v-109h467v-467h110v467h466v109z" />
    <glyph glyph-name="icon_switch" unicode="&#xe625;" 
d="M943 601q0 -68 -48.5 -117t-117.5 -49h-530q-69 0 -117.5 49t-48.5 117v0q0 69 49 117.5t117 48.5h530q68 0 117 -48.5t49 -117.5v0zM776 720q-49 0 -83.5 -35t-34.5 -84t34.5 -83.5t83.5 -34.5t84 34.5t35 83.5t-35 84t-84 35zM81 167q0 68 49 117t117 49h530
q69 0 117.5 -49t48.5 -117v0q0 -69 -48.5 -117.5t-117.5 -48.5h-530q-68 0 -117 48.5t-49 117.5v0zM248 48q49 0 83.5 35t34.5 84t-34.5 83.5t-83.5 34.5t-84 -34.5t-35 -83.5t35 -84t84 -35z" />
    <glyph glyph-name="icon_location" unicode="&#xe616;" 
d="M512 896q-102 0 -188.5 -47t-136.5 -128.5t-50 -176.5q0 -55 38.5 -144t93.5 -177.5t110.5 -169t93.5 -131t39 -50.5q15 19 40.5 52.5t90 126.5t114 174t90 172.5t40.5 146.5q0 95 -50 176.5t-136.5 128.5t-188.5 47zM512 384q-57 0 -97 40t-40 96.5t40 96.5t97 40
t97 -40t40 -96.5t-40 -96.5t-97 -40z" />
    <glyph glyph-name="icon_filtrate" unicode="&#xe60d;" 
d="M465 -63q-5 0 -12 2t-8 2q-20 14 -20 36v347l-377 443q-15 22 -4 44q13 20 36 20h864q23 0 36 -20q11 -17 -4 -40l-379 -447v-267q0 -24 -24 -36l-92 -80q-4 -4 -16 -4v0v0z" />
    <glyph glyph-name="icon_location_map" unicode="&#xe614;" 
d="M492 222q6 -9 17 -9t17 9l192 284q35 56 35 121q0 97 -71.5 165.5t-172.5 68.5t-172.5 -68.5t-71.5 -165.5q0 -65 35 -121zM509 739q51 0 86.5 -35.5t35.5 -85.5t-35.5 -86t-86.5 -36t-86.5 36t-35.5 86t35.5 85.5t86.5 35.5zM69 428v-519l261 30v401l-79 110zM509.5 153
q-45.5 0 -71.5 36l-59 83v-333l260 -30v362l-59 -82q-25 -36 -70.5 -36zM758 436l-70 -96v-431l261 30v520z" />
    <glyph glyph-name="icon_upload" unicode="&#xe608;" 
d="M287 609h169v-337h112v337h169l-225 225zM928 305h-78v-259h-676v259h-112v-371h900v371h-34z" />
    <glyph glyph-name="icon_pay" unicode="&#xe619;" 
d="M960 39q0 -20 -7 -35q-6 -17 -18 -29q-12 -13 -28 -20q-19 -8 -37 -8h-694q-35 0 -55 8q-16 7 -29 20q-13 12 -21 29q-7 15 -7 35v497q0 37 26 64q20 19 64 19h716q44 0 64 -19q26 -27 26 -64v-141h-224q-43 0 -64 -21q-26 -26 -26 -63q1 -26 11 -46q8 -17 26 -31
q24 -17 53 -17h224v-178zM825 664h-448q19 10 52.5 32t48.5 30q28 14 82 44q14 7 35 18.5t28 14.5q34 19 62 18q26 -2 46 -9q22 -11 37 -29zM692 311q0 19 12.5 31.5t31.5 12.5t32 -12.5t13 -31.5q0 -20 -13 -32q-13 -14 -31.5 -14t-31.5 14q-13 12 -13 32v0v0z" />
    <glyph glyph-name="icon_circle_error" unicode="&#xe635;" 
d="M512 896q-139 0 -257 -68.5t-186.5 -186.5t-68.5 -257t68.5 -257t186.5 -186.5t257 -68.5t257 68.5t186.5 186.5t68.5 257t-68.5 257t-186.5 186.5t-257 68.5zM731 227l-62 -62l-157 156l-157 -156l-62 62l156 157l-156 157l62 62l157 -156l157 156l62 -62l-156 -157z
" />
    <glyph glyph-name="icon_download" unicode="&#xe606;" 
d="M737 159h-169v338h-112v-338h-169l225 -225zM96 463h78v259h676v-259h112v371h-900v-371h34z" />
    <glyph glyph-name="icon_arrow" unicode="&#xe61a;" 
d="M321 896l511 -513l-508 -511l-68 68l440 443l-443 445z" />
    <glyph glyph-name="icon_hollow_heart" unicode="&#xe679;" 
d="M512 -54h-1q-4 0 -7 1q-7 2 -40 20.5t-95.5 60t-116.5 87.5q-109 93 -172 192q-80 126 -80 254q0 108 70.5 184.5t169.5 76.5q53 0 101 -24t83 -68l88 -113l88 113q35 44 83 68t101 24q99 0 169.5 -76.5t70.5 -184.5q0 -128 -80 -254q-63 -99 -172 -192
q-54 -46 -116.5 -87.5t-95.5 -60t-41 -20.5q-3 -1 -7 -1v0zM240 779q-81 0 -138.5 -64t-57.5 -154q0 -62 20.5 -123t56.5 -113.5t73.5 -93.5t81.5 -79q110 -95 236 -160q126 65 236 160q44 38 81.5 79t73.5 93.5t56.5 113.5t20.5 123q0 90 -57.5 154t-138.5 64
q-43 0 -82 -20t-67 -56l-106 -135q-6 -8 -17 -8t-17 8l-106 135q-28 36 -67 56t-82 20z" />
    <glyph glyph-name="icon_circle_yes" unicode="&#xe61b;" horiz-adv-x="1025" 
d="M512 885q-102 0 -194.5 -40t-159.5 -107t-107 -159.5t-40 -194.5t40 -194.5t107 -159.5t159.5 -107t194.5 -40t194.5 40t160 107t107 159.5t39.5 194.5t-39.5 194.5t-107 159.5t-160 107t-194.5 40zM514 217l-70 -75l-283 262l70 75l212 -197l349 376l71 -65z" />
  </font>
</defs>
</svg>
